<svg xmlns="http://www.w3.org/2000/svg" viewBox="0 0 1440 320">
            <path
              fill="#d8b4fe"
              fillOpacity="1"
              d="M0,288L24,277.3C48,267,96,245,144,234.7C192,224,240,224,288,197.3C336,171,384,117,432,90.7C480,64,528,64,576,101.3C624,139,672,213,720,213.3C768,213,816,139,864,106.7C912,75,960,85,1008,74.7C1056,64,1104,32,1152,32C1200,32,1248,64,1296,96C1344,128,1392,160,1416,176L1440,192L1440,0L1416,0C1392,0,1344,0,1296,0C1248,0,1200,0,1152,0C1104,0,1056,0,1008,0C960,0,912,0,864,0C816,0,768,0,720,0C672,0,624,0,576,0C528,0,480,0,432,0C384,0,336,0,288,0C240,0,192,0,144,0C96,0,48,0,24,0L0,0Z"
            ></path>
          </svg>